PathFileType	4	(X/Y/Z)	./resultDataOpenSim/trcMotMarkerGrf/sub06/qtm-03-06.trc
DataRate	CameraRate	NumFrames	NumMarkers	Units	OrigDataRate	OrigDataStartFrame	OrigNumFrames
250.000000	250.000000	8	24	m	250.000000	200	532
Frame#	Time	L.Toe.Tip			R.Toe.Tip			L.Ankle.Lat			R.Ankle.Lat			L.Ankle.Med			R.Ankle.Med			L.Heel			R.Heel			L.Knee.Lat			R.Knee.Lat			L.Knee.Med			R.Knee.Med			L.Thigh.Upper			R.Thigh.Upper			L.ASIS			R.ASIS			V.Sacral			L.Acromium			R.Acromium			C7			L.Elbow			R.Elbow			L.Wrist.Lat			R.Wrist.Lat
		X1	Y1	Z1	X2	Y2	Z2	X3	Y3	Z3	X4	Y4	Z4	X5	Y5	Z5	X6	Y6	Z6	X7	Y7	Z7	X8	Y8	Z8	X9	Y9	Z9	X10	Y10	Z10	X11	Y11	Z11	X12	Y12	Z12	X13	Y13	Z13	X14	Y14	Z14	X15	Y15	Z15	X16	Y16	Z16	X17	Y17	Z17	X18	Y18	Z18	X19	Y19	Z19	X20	Y20	Z20	X21	Y21	Z21	X22	Y22	Z22	X23	Y23	Z23	X24	Y24	Z24

200	0.796	0.04803497	-0.015222892	0.0068214512	-0.51060448	0.085455355	0.1384038	-0.072809665	0.015502896	-0.017265	-0.52096259	0.22044595	0.17836829	-0.074903295	0.030096175	0.070106055	-0.48086545	0.21489854	0.09856703	-0.15125382	-0.008772492	0.025553676	-0.5458934	0.26947019	0.119044	0.029242791	0.375296	-0.039662979	-0.16656123	0.34040657	0.23632599	-0.00019910119	0.37501881	0.078682396	-0.17094622	0.32832612	0.10410812	-0.10859497	0.74545517	-0.11181634	-0.19846388	0.70485627	0.21879217	-0.051689524	0.78025343	-0.051923431	-0.093829813	0.76502672	0.19123529	-0.25589808	0.85426122	0.050639017	-0.12265553	1.2473638	-0.13764281	-0.14474113	1.256729	0.22643011	-0.21182111	1.2916119	0.037076384	-0.2199916	0.94782336	-0.17552677	-0.22114671	0.94500947	0.30294961	-0.12489314	0.72717654	-0.22848633	-0.036036757	0.7812526	0.32885337
201	0.8	0.04803284	-0.015238829	0.0068410972	-0.49311412	0.086620368	0.13938484	-0.072720855	0.015626913	-0.017190229	-0.5056125	0.22119402	0.17871642	-0.074819713	0.030255667	0.070112448	-0.4656498	0.21636467	0.098956829	-0.1512559	-0.00860748	0.02551376	-0.53156626	0.27010071	0.11963476	0.030343997	0.37531271	-0.039371279	-0.15243006	0.34282334	0.23660199	0.0014576458	0.37522582	0.079065808	-0.15710633	0.33039418	0.10430056	-0.10362687	0.74687483	-0.11211377	-0.19199896	0.70715774	0.21883502	-0.046208765	0.78178681	-0.05232981	-0.087760826	0.76713082	0.19104201	-0.25023787	0.85614723	0.051242913	-0.11601496	1.2496182	-0.13732861	-0.13899403	1.2588037	0.22661896	-0.20535147	1.2937233	0.037101691	-0.21120209	0.94911675	-0.17645586	-0.21669444	0.94734085	0.30234516	-0.11272134	0.72947442	-0.22754555	-0.033953045	0.78124077	0.32912398
202	0.804	0.04805072	-0.015237753	0.0068572782	-0.47561953	0.087588377	0.14039484	-0.072627628	0.015767661	-0.017137791	-0.49023926	0.22178674	0.17906699	-0.074610993	0.030459702	0.070153332	-0.45036261	0.21758192	0.099391767	-0.15125868	-0.0084333272	0.025461957	-0.51710745	0.27041955	0.12019498	0.031375848	0.37533636	-0.039041896	-0.13830055	0.34546878	0.23680256	0.0028553616	0.37542392	0.079381899	-0.14317589	0.33261898	0.1044214	-0.098743193	0.74835123	-0.11232853	-0.18539028	0.70951628	0.21894642	-0.040642747	0.78343844	-0.052742423	-0.081678018	0.76927012	0.19082785	-0.24453468	0.85803806	0.051965312	-0.10948959	1.2519538	-0.13701863	-0.1331848	1.2609178	0.2268125	-0.19897325	1.2958892	0.037225434	-0.20239685	0.95048138	-0.17738939	-0.21228711	0.94976239	0.3017822	-0.10052049	0.73190377	-0.2265229	-0.031968068	0.78133241	0.32941387
203	0.808	0.048081967	-0.015222068	0.0068680689	-0.4579965	0.088404055	0.14143966	-0.072547175	0.015914119	-0.017127584	-0.47484105	0.22222955	0.17943147	-0.074331088	0.030698146	0.070205688	-0.43492095	0.21854541	0.099734993	-0.15126144	-0.0082532753	0.025396697	-0.50256683	0.27044133	0.1207038	0.032315737	0.37537163	-0.038702713	-0.12418023	0.34832423	0.23692263	0.0040268154	0.37562759	0.079673661	-0.12904692	0.33503253	0.10435504	-0.093903597	0.74987366	-0.11247381	-0.17867648	0.71195192	0.21909256	-0.03501337	0.78519818	-0.053149543	-0.075577118	0.77145186	0.19059841	-0.23867386	0.85998488	0.052732934	-0.10303077	1.2543499	-0.1366954	-0.12730591	1.2630652	0.22700894	-0.19264333	1.2980997	0.037409001	-0.19358717	0.95191892	-0.17830731	-0.20791417	0.95226936	0.30124747	-0.088293386	0.73447383	-0.22541246	-0.030170079	0.78152986	0.32972806
204	0.812	0.048109819	-0.015203973	0.0068751366	-0.44014037	0.089109996	0.14251929	-0.072483298	0.016064573	-0.017158225	-0.4593426	0.22253508	0.17985016	-0.074116918	0.030943218	0.070212209	-0.41925827	0.21925331	0.09980721	-0.15126342	-0.0080686872	0.025316202	-0.48803584	0.27017349	0.12113043	0.033138288	0.37542326	-0.038389156	-0.11009481	0.35136715	0.23697012	0.0049990826	0.37585022	0.079965781	-0.11460904	0.33763146	0.1039924	-0.088912325	0.75146574	-0.11256346	-0.17200386	0.71447771	0.21927757	-0.029393935	0.78703746	-0.053527985	-0.069453661	0.77368365	0.19036243	-0.23260002	0.86203882	0.053433322	-0.09660472	1.2567939	-0.13635179	-0.12137423	1.2652322	0.22720735	-0.18631666	1.3003377	0.037612708	-0.18478747	0.95342863	-0.1791965	-0.20354392	0.95485304	0.30071645	-0.076050671	0.7371857	-0.22421614	-0.028542854	0.78183222	0.33006366
205	0.816	0.048128364	-0.015191791	0.0068804817	-0.42199657	0.089727949	0.14363485	-0.072426784	0.016227453	-0.01721426	-0.44356431	0.22276329	0.18040503	-0.074074065	0.031174479	0.070127317	-0.40348009	0.21975386	0.099627949	-0.1512601	-0.0078756933	0.025226079	-0.47358713	0.26960141	0.12145819	0.033856057	0.37550356	-0.038107754	-0.096075673	0.3545839	0.23696895	0.0057120228	0.37607983	0.080223024	-0.10000066	0.34044642	0.10335366	-0.083668291	0.75313186	-0.11261619	-0.16545105	0.7170752	0.2195228	-0.023829526	0.78892384	-0.05386104	-0.063309521	0.7759708	0.19012832	-0.22642444	0.86422313	0.053914364	-0.090193717	1.259278	-0.13598905	-0.1154224	1.2673996	0.22740464	-0.1799738	1.3025763	0.037816522	-0.17601833	0.955004	-0.18005869	-0.19914036	0.9574981	0.30013395	-0.063805813	0.74002819	-0.22294264	-0.026970031	0.78223871	0.33041303
206	0.82	0.048141505	-0.015185398	0.006884192	-0.40354995	0.090260491	0.14479441	-0.072380142	0.016410404	-0.017287049	-0.42738233	0.22296557	0.18116443	-0.07421493	0.031387647	0.069947946	-0.38781286	0.22011832	0.099464687	-0.15124291	-0.0076689725	0.02514777	-0.45923713	0.26870702	0.12170209	0.034495378	0.37562873	-0.037845475	-0.082142471	0.35797339	0.23693967	0.0060558024	0.37628693	0.080378648	-0.085587589	0.34353647	0.10261466	-0.078273358	0.75483383	-0.11264839	-0.15889965	0.71970555	0.21982181	-0.018314567	0.79083592	-0.054146009	-0.057152334	0.77831783	0.18989826	-0.22038264	0.8665285	0.053895864	-0.083788052	1.261796	-0.1356119	-0.10947356	1.2695555	0.22759566	-0.17361929	1.3047945	0.038016944	-0.16729309	0.95663702	-0.18089824	-0.19466657	0.96018452	0.29938982	-0.051560264	0.74299082	-0.22159744	-0.025361711	0.78274675	0.33077491
207	0.824	0.048152946	-0.015180911	0.0068847744	-0.3848247	0.090675195	0.14598586	-0.072371666	0.016611884	-0.017380386	-0.41103037	0.22302541	0.18203824	-0.074458346	0.031596013	0.069718478	-0.37234851	0.22034625	0.099548551	-0.15120489	-0.0074470075	0.025110217	-0.44495666	0.26747784	0.12189067	0.035074082	0.37580389	-0.037594635	-0.068305319	0.36153795	0.23688761	0.005964872	0.37644375	0.080395185	-0.071516195	0.346895	0.10197104	-0.072856711	0.75652462	-0.11265031	-0.15221261	0.72233949	0.22017597	-0.012807765	0.7927663	-0.054384535	-0.050984572	0.7807299	0.18966695	-0.21464587	0.86890757	0.053024781	-0.077378552	1.2643396	-0.1352246	-0.10353358	1.2716994	0.22777784	-0.16726738	1.3069841	0.038218037	-0.15860345	0.95832443	-0.18170893	-0.19010582	0.96288808	0.29840467	-0.039302402	0.74607792	-0.22017733	-0.023711689	0.78334818	0.33115061
